<svg xmlns="http://www.w3.org/2000/svg" width="32.214" height="25.062" viewBox="0 0 32.214 25.062">
  <g id="mastercard" transform="translate(-379 -4796)">
    <g id="Group_681" data-name="Group 681" transform="translate(379 4796)" style="isolation: isolate">
      <g id="Group_458" data-name="Group 458" transform="translate(0 0)">
        <g id="mastercard-2" transform="translate(0 0)">
          <path id="Path_759" data-name="Path 759" d="M133.467,1320.608v.064h.06a.062.062,0,0,0,.032-.008.029.029,0,0,0,.012-.025.028.028,0,0,0-.012-.024.057.057,0,0,0-.032-.008h-.06Zm.061-.046a.111.111,0,0,1,.072.021.07.07,0,0,1,.025.057.065.065,0,0,1-.02.05.1.1,0,0,1-.058.024l.081.092h-.062l-.074-.091h-.024v.091h-.052v-.244h.113Zm-.016.328a.186.186,0,0,0,.079-.016.206.206,0,0,0,.064-.044.2.2,0,0,0,.044-.064.208.208,0,0,0,0-.159.205.205,0,0,0-.044-.064.209.209,0,0,0-.064-.044.2.2,0,0,0-.079-.015.209.209,0,0,0-.08.015.2.2,0,0,0-.066.044.208.208,0,0,0-.043.225.2.2,0,0,0,.043.065.206.206,0,0,0,.066.043.2.2,0,0,0,.08.016m0-.467a.27.27,0,0,1,.189.077.26.26,0,0,1,.057.287.27.27,0,0,1-.057.084.277.277,0,0,1-.085.056.256.256,0,0,1-.1.021.262.262,0,0,1-.106-.021.25.25,0,0,1-.142-.142.26.26,0,0,1,.057-.287.256.256,0,0,1,.086-.056.262.262,0,0,1,.106-.021m-24.661-.938a.8.8,0,1,1,.8.846.793.793,0,0,1-.8-.846m2.14,0v-1.322h-.575v.322a1,1,0,0,0-.835-.387,1.39,1.39,0,0,0,0,2.776,1,1,0,0,0,.835-.387v.321h.574v-1.323Zm19.421,0a.8.8,0,1,1,.8.846.793.793,0,0,1-.8-.846m2.141,0V1317.1h-.575v1.383a1,1,0,0,0-.835-.387,1.39,1.39,0,0,0,0,2.776,1,1,0,0,0,.835-.387v.321h.575Zm-14.428-.873a.656.656,0,0,1,.669.641h-1.371a.681.681,0,0,1,.7-.641m.011-.515a1.389,1.389,0,0,0,.038,2.776,1.606,1.606,0,0,0,1.084-.37l-.282-.426a1.261,1.261,0,0,1-.769.276.734.734,0,0,1-.791-.647h1.963c.006-.072.011-.144.011-.221a1.268,1.268,0,0,0-1.255-1.388m6.94,1.388a.8.8,0,1,1,.8.846.793.793,0,0,1-.8-.846m2.14,0v-1.321h-.574v.322a1,1,0,0,0-.835-.387,1.39,1.39,0,0,0,0,2.776,1,1,0,0,0,.835-.387v.321h.575v-1.323Zm-5.386,0a1.335,1.335,0,0,0,1.41,1.388,1.381,1.381,0,0,0,.95-.315l-.276-.465a1.162,1.162,0,0,1-.693.238.848.848,0,0,1,0-1.693,1.165,1.165,0,0,1,.693.238l.276-.465a1.383,1.383,0,0,0-.95-.315,1.335,1.335,0,0,0-1.41,1.388m7.41-1.388a.78.78,0,0,0-.7.387v-.32h-.57v2.643h.575v-1.482c0-.437.188-.68.564-.68a.93.93,0,0,1,.359.067l.177-.542a1.22,1.22,0,0,0-.41-.072m-15.407.276a1.976,1.976,0,0,0-1.078-.276c-.67,0-1.1.321-1.1.846,0,.431.321.7.912.78l.272.039c.315.044.464.127.464.276,0,.2-.209.321-.6.321a1.41,1.41,0,0,1-.879-.277l-.27.448a1.906,1.906,0,0,0,1.144.343c.763,0,1.206-.359,1.206-.863,0-.464-.348-.708-.923-.79l-.271-.039c-.249-.032-.448-.083-.448-.26,0-.193.188-.309.5-.309a1.705,1.705,0,0,1,.824.227l.249-.465Zm7.417-.276a.778.778,0,0,0-.7.387v-.321h-.57v2.643h.575v-1.482c0-.437.188-.68.564-.68a.929.929,0,0,1,.359.067l.177-.542a1.22,1.22,0,0,0-.41-.072m-4.9.066h-.94v-.8h-.581v.8h-.536v.525h.536v1.206c0,.613.238.978.918.978a1.35,1.35,0,0,0,.719-.2l-.166-.492a1.064,1.064,0,0,1-.509.149c-.287,0-.381-.177-.381-.443v-1.194h.94Zm-8.593,2.643v-1.658a.984.984,0,0,0-1.04-1.051,1.023,1.023,0,0,0-.929.47.97.97,0,0,0-.874-.47.874.874,0,0,0-.774.393v-.327h-.575v2.643h.58v-1.465a.619.619,0,0,1,.647-.7c.382,0,.575.249.575.7v1.471h.581v-1.466a.624.624,0,0,1,.647-.7c.392,0,.58.249.58.7v1.471Z" transform="translate(-101.892 -1295.888)" fill="#1f2024"/>
          <path id="Path_760" data-name="Path 760" d="M1929.689,977.607v-.386h-.1l-.117.265-.115-.265h-.1v.386h.072v-.291l.109.251h.074l.109-.252v.292h.071Zm-.639,0v-.32h.129v-.065h-.329v.065h.129v.32h.071Z" transform="translate(-1897.786 -961.482)" fill="#1f2024"/>
          <path id="Path_761" data-name="Path 761" d="M738.421,147.8H729.71V132.15h8.711Z" transform="translate(-717.958 -130.022)" fill="#1f2024"/>
          <path id="Path_762" data-name="Path 762" d="M12.3,9.955a9.939,9.939,0,0,1,3.8-7.827,9.956,9.956,0,1,0,0,15.654,9.939,9.939,0,0,1-3.8-7.827" transform="translate(0 0.001)" fill="#1f2024"/>
          <path id="Path_763" data-name="Path 763" d="M1016.217,9.955a9.955,9.955,0,0,1-16.107,7.827,9.957,9.957,0,0,0,0-15.654,9.955,9.955,0,0,1,16.107,7.827" transform="translate(-984.003 0.001)" fill="#1f2024"/>
        </g>
      </g>
    </g>
    <g id="Group_923" data-name="Group 923" transform="translate(379 4796)" style="mix-blend-mode: luminosity;isolation: isolate">
      <g id="Group_458-2" data-name="Group 458" transform="translate(0 0)">
        <g id="mastercard-2-2" data-name="mastercard-2" transform="translate(0 0)">
          <path id="Path_759-2" data-name="Path 759" d="M133.467,1320.608v.064h.06a.062.062,0,0,0,.032-.008.029.029,0,0,0,.012-.025.028.028,0,0,0-.012-.024.057.057,0,0,0-.032-.008h-.06Zm.061-.046a.111.111,0,0,1,.072.021.07.07,0,0,1,.025.057.065.065,0,0,1-.02.05.1.1,0,0,1-.058.024l.081.092h-.062l-.074-.091h-.024v.091h-.052v-.244h.113Zm-.016.328a.186.186,0,0,0,.079-.016.206.206,0,0,0,.064-.044.2.2,0,0,0,.044-.064.208.208,0,0,0,0-.159.205.205,0,0,0-.044-.064.209.209,0,0,0-.064-.044.2.2,0,0,0-.079-.015.209.209,0,0,0-.08.015.2.2,0,0,0-.066.044.208.208,0,0,0-.043.225.2.2,0,0,0,.043.065.206.206,0,0,0,.066.043.2.2,0,0,0,.08.016m0-.467a.27.27,0,0,1,.189.077.26.26,0,0,1,.057.287.27.27,0,0,1-.057.084.277.277,0,0,1-.085.056.256.256,0,0,1-.1.021.262.262,0,0,1-.106-.021.25.25,0,0,1-.142-.142.26.26,0,0,1,.057-.287.256.256,0,0,1,.086-.056.262.262,0,0,1,.106-.021m-24.661-.938a.8.8,0,1,1,.8.846.793.793,0,0,1-.8-.846m2.14,0v-1.322h-.575v.322a1,1,0,0,0-.835-.387,1.39,1.39,0,0,0,0,2.776,1,1,0,0,0,.835-.387v.321h.574v-1.323Zm19.421,0a.8.8,0,1,1,.8.846.793.793,0,0,1-.8-.846m2.141,0V1317.1h-.575v1.383a1,1,0,0,0-.835-.387,1.39,1.39,0,0,0,0,2.776,1,1,0,0,0,.835-.387v.321h.575Zm-14.428-.873a.656.656,0,0,1,.669.641h-1.371a.681.681,0,0,1,.7-.641m.011-.515a1.389,1.389,0,0,0,.038,2.776,1.606,1.606,0,0,0,1.084-.37l-.282-.426a1.261,1.261,0,0,1-.769.276.734.734,0,0,1-.791-.647h1.963c.006-.072.011-.144.011-.221a1.268,1.268,0,0,0-1.255-1.388m6.94,1.388a.8.8,0,1,1,.8.846.793.793,0,0,1-.8-.846m2.14,0v-1.321h-.574v.322a1,1,0,0,0-.835-.387,1.39,1.39,0,0,0,0,2.776,1,1,0,0,0,.835-.387v.321h.575v-1.323Zm-5.386,0a1.335,1.335,0,0,0,1.41,1.388,1.381,1.381,0,0,0,.95-.315l-.276-.465a1.162,1.162,0,0,1-.693.238.848.848,0,0,1,0-1.693,1.165,1.165,0,0,1,.693.238l.276-.465a1.383,1.383,0,0,0-.95-.315,1.335,1.335,0,0,0-1.41,1.388m7.41-1.388a.78.78,0,0,0-.7.387v-.32h-.57v2.643h.575v-1.482c0-.437.188-.68.564-.68a.93.93,0,0,1,.359.067l.177-.542a1.22,1.22,0,0,0-.41-.072m-15.407.276a1.976,1.976,0,0,0-1.078-.276c-.67,0-1.1.321-1.1.846,0,.431.321.7.912.78l.272.039c.315.044.464.127.464.276,0,.2-.209.321-.6.321a1.41,1.41,0,0,1-.879-.277l-.27.448a1.906,1.906,0,0,0,1.144.343c.763,0,1.206-.359,1.206-.863,0-.464-.348-.708-.923-.79l-.271-.039c-.249-.032-.448-.083-.448-.26,0-.193.188-.309.5-.309a1.705,1.705,0,0,1,.824.227l.249-.465Zm7.417-.276a.778.778,0,0,0-.7.387v-.321h-.57v2.643h.575v-1.482c0-.437.188-.68.564-.68a.929.929,0,0,1,.359.067l.177-.542a1.22,1.22,0,0,0-.41-.072m-4.9.066h-.94v-.8h-.581v.8h-.536v.525h.536v1.206c0,.613.238.978.918.978a1.35,1.35,0,0,0,.719-.2l-.166-.492a1.064,1.064,0,0,1-.509.149c-.287,0-.381-.177-.381-.443v-1.194h.94Zm-8.593,2.643v-1.658a.984.984,0,0,0-1.04-1.051,1.023,1.023,0,0,0-.929.47.97.97,0,0,0-.874-.47.874.874,0,0,0-.774.393v-.327h-.575v2.643h.58v-1.465a.619.619,0,0,1,.647-.7c.382,0,.575.249.575.7v1.471h.581v-1.466a.624.624,0,0,1,.647-.7c.392,0,.58.249.58.7v1.471Z" transform="translate(-101.892 -1295.888)" fill="#82b7d0"/>
          <path id="Path_760-2" data-name="Path 760" d="M1929.689,977.607v-.386h-.1l-.117.265-.115-.265h-.1v.386h.072v-.291l.109.251h.074l.109-.252v.292h.071Zm-.639,0v-.32h.129v-.065h-.329v.065h.129v.32h.071Z" transform="translate(-1897.786 -961.482)" fill="#f79410"/>
          <path id="Path_761-2" data-name="Path 761" d="M738.421,147.8H729.71V132.15h8.711Z" transform="translate(-717.958 -130.022)" fill="#ff5f00"/>
          <path id="Path_762-2" data-name="Path 762" d="M12.3,9.955a9.939,9.939,0,0,1,3.8-7.827,9.956,9.956,0,1,0,0,15.654,9.939,9.939,0,0,1-3.8-7.827" transform="translate(0 0.001)" fill="#eb001b"/>
          <path id="Path_763-2" data-name="Path 763" d="M1016.217,9.955a9.955,9.955,0,0,1-16.107,7.827,9.957,9.957,0,0,0,0-15.654,9.955,9.955,0,0,1,16.107,7.827" transform="translate(-984.003 0.001)" fill="#f79e1b"/>
        </g>
      </g>
    </g>
  </g>
</svg>