<svg xmlns="http://www.w3.org/2000/svg" width="49.41" height="16.03" viewBox="0 0 49.41 16.03">
  <g id="visa" transform="translate(-310 -4805)">
    <g id="Group_680" data-name="Group 680" transform="translate(310 4805)" style="isolation: isolate">
      <g id="Group_454" data-name="Group 454" transform="translate(0)">
        <g id="Group_453" data-name="Group 453" transform="translate(0)">
          <path id="Path_764" data-name="Path 764" d="M32.646,67.282H28.614L31.134,51.8h4.032ZM25.222,51.8,21.379,62.447l-.455-2.294h0L19.568,53.19A1.726,1.726,0,0,0,17.655,51.8H11.3l-.075.262a15.083,15.083,0,0,1,4.217,1.77l3.5,13.454h4.2L29.561,51.8H25.222ZM56.934,67.282h3.7L57.409,51.8H54.168a1.853,1.853,0,0,0-1.861,1.154L46.293,67.282h4.2l.84-2.3h5.125ZM52.5,61.8l2.118-5.8,1.192,5.8ZM46.609,55.52l.575-3.326a11.637,11.637,0,0,0-3.626-.675c-2,0-6.752.874-6.752,5.127,0,4,5.576,4.05,5.576,6.152s-5,1.725-6.653.4l-.6,3.477a11.3,11.3,0,0,0,4.551.874c2.751,0,6.9-1.425,6.9-5.3,0-4.026-5.627-4.4-5.627-6.152s3.927-1.526,5.652-.575Z" transform="translate(-11.226 -51.519)" fill="#1f2024"/>
        </g>
        <path id="Path_767" data-name="Path 767" d="M20.924,60.545,19.568,53.58a1.726,1.726,0,0,0-1.913-1.394H11.3l-.075.262a15.621,15.621,0,0,1,5.984,3A12.076,12.076,0,0,1,20.924,60.545Z" transform="translate(-11.226 -51.91)" fill="#1f2024"/>
      </g>
    </g>
    <g id="Group_924" data-name="Group 924" transform="translate(310 4805)" style="mix-blend-mode: luminosity;isolation: isolate">
      <g id="Group_454-2" data-name="Group 454" transform="translate(0)">
        <g id="Group_453-2" data-name="Group 453" transform="translate(0)">
          <path id="Path_764-2" data-name="Path 764" d="M32.646,67.282H28.614L31.134,51.8h4.032ZM25.222,51.8,21.379,62.447l-.455-2.294h0L19.568,53.19A1.726,1.726,0,0,0,17.655,51.8H11.3l-.075.262a15.083,15.083,0,0,1,4.217,1.77l3.5,13.454h4.2L29.561,51.8H25.222ZM56.934,67.282h3.7L57.409,51.8H54.168a1.853,1.853,0,0,0-1.861,1.154L46.293,67.282h4.2l.84-2.3h5.125ZM52.5,61.8l2.118-5.8,1.192,5.8ZM46.609,55.52l.575-3.326a11.637,11.637,0,0,0-3.626-.675c-2,0-6.752.874-6.752,5.127,0,4,5.576,4.05,5.576,6.152s-5,1.725-6.653.4l-.6,3.477a11.3,11.3,0,0,0,4.551.874c2.751,0,6.9-1.425,6.9-5.3,0-4.026-5.627-4.4-5.627-6.152s3.927-1.526,5.652-.575Z" transform="translate(-11.226 -51.519)" fill="#2566af"/>
        </g>
        <path id="Path_767-2" data-name="Path 767" d="M20.924,60.545,19.568,53.58a1.726,1.726,0,0,0-1.913-1.394H11.3l-.075.262a15.621,15.621,0,0,1,5.984,3A12.076,12.076,0,0,1,20.924,60.545Z" transform="translate(-11.226 -51.91)" fill="#e6a540"/>
      </g>
    </g>
  </g>
</svg>